<svg width="21" height="21" viewBox="0 0 21 21" fill="none" xmlns="http://www.w3.org/2000/svg">
<path d="M11.2413 0.634277C12.3663 0.637277 12.9373 0.643277 13.4303 0.657277L13.6243 0.664277C13.8483 0.672277 14.0693 0.682277 14.3363 0.694277C15.4003 0.744277 16.1263 0.912277 16.7633 1.15928C17.4233 1.41328 17.9793 1.75728 18.5353 2.31228C19.0438 2.81217 19.4372 3.41687 19.6883 4.08428C19.9353 4.72128 20.1033 5.44728 20.1533 6.51228C20.1653 6.77828 20.1753 6.99928 20.1833 7.22428L20.1893 7.41828C20.2043 7.91028 20.2103 8.48128 20.2123 9.60628L20.2133 10.3523V11.6623C20.2157 12.3917 20.2081 13.1211 20.1903 13.8503L20.1843 14.0443C20.1763 14.2693 20.1663 14.4903 20.1543 14.7563C20.1043 15.8213 19.9343 16.5463 19.6883 17.1843C19.438 17.8521 19.0444 18.4569 18.5353 18.9563C18.0352 19.4646 17.4306 19.858 16.7633 20.1093C16.1263 20.3563 15.4003 20.5243 14.3363 20.5743C14.099 20.5855 13.8617 20.5954 13.6243 20.6043L13.4303 20.6103C12.9373 20.6243 12.3663 20.6313 11.2413 20.6333L10.4953 20.6343H9.18628C8.45655 20.6368 7.72681 20.6291 6.99728 20.6113L6.80328 20.6053C6.56589 20.5963 6.32856 20.586 6.09128 20.5743C5.02728 20.5243 4.30128 20.3563 3.66328 20.1093C2.99595 19.8587 2.3915 19.4651 1.89228 18.9563C1.38333 18.4566 0.989509 17.8518 0.738285 17.1843C0.491285 16.5473 0.323284 15.8213 0.273284 14.7563C0.262143 14.519 0.252143 14.2817 0.243284 14.0443L0.238285 13.8503C0.219857 13.1211 0.211522 12.3917 0.213285 11.6623V9.60628C0.210494 8.87688 0.217828 8.14747 0.235285 7.41828L0.242285 7.22428C0.250285 6.99928 0.260285 6.77828 0.272285 6.51228C0.322285 5.44728 0.490284 4.72228 0.737284 4.08428C0.988398 3.41618 1.383 2.8113 1.89328 2.31228C2.39238 1.80375 2.99643 1.41026 3.66328 1.15928C4.30128 0.912277 5.02628 0.744277 6.09128 0.694277C6.35728 0.682277 6.57928 0.672277 6.80328 0.664277L6.99728 0.658277C7.72648 0.64051 8.45588 0.632843 9.18528 0.635277L11.2413 0.634277ZM10.2133 5.63428C8.8872 5.63428 7.61543 6.16106 6.67775 7.09874C5.74007 8.03643 5.21328 9.3082 5.21328 10.6343C5.21328 11.9604 5.74007 13.2321 6.67775 14.1698C7.61543 15.1075 8.8872 15.6343 10.2133 15.6343C11.5394 15.6343 12.8111 15.1075 13.7488 14.1698C14.6865 13.2321 15.2133 11.9604 15.2133 10.6343C15.2133 9.3082 14.6865 8.03643 13.7488 7.09874C12.8111 6.16106 11.5394 5.63428 10.2133 5.63428ZM10.2133 7.63428C10.6073 7.63421 10.9974 7.71174 11.3614 7.86245C11.7254 8.01315 12.0561 8.23407 12.3348 8.5126C12.6134 8.79113 12.8344 9.12181 12.9852 9.48577C13.1361 9.84972 13.2137 10.2398 13.2138 10.6338C13.2139 11.0277 13.1363 11.4179 12.9856 11.7819C12.8349 12.1459 12.614 12.4766 12.3355 12.7552C12.0569 13.0339 11.7262 13.2549 11.3623 13.4057C10.9983 13.5565 10.6083 13.6342 10.2143 13.6343C9.41864 13.6343 8.65557 13.3182 8.09296 12.7556C7.53035 12.193 7.21428 11.4299 7.21428 10.6343C7.21428 9.83863 7.53035 9.07557 8.09296 8.51296C8.65557 7.95035 9.41864 7.63428 10.2143 7.63428M15.4643 4.13428C15.1328 4.13428 14.8148 4.26597 14.5804 4.50039C14.346 4.73481 14.2143 5.05276 14.2143 5.38428C14.2143 5.7158 14.346 6.03374 14.5804 6.26816C14.8148 6.50258 15.1328 6.63428 15.4643 6.63428C15.7958 6.63428 16.1137 6.50258 16.3482 6.26816C16.5826 6.03374 16.7143 5.7158 16.7143 5.38428C16.7143 5.05276 16.5826 4.73481 16.3482 4.50039C16.1137 4.26597 15.7958 4.13428 15.4643 4.13428Z" fill="#CC8E1E"/>
</svg>
