<svg width="19" height="19" viewBox="0 0 19 19" fill="none" xmlns="http://www.w3.org/2000/svg">
<path d="M16.2137 0.634277C16.7441 0.634277 17.2528 0.844991 17.6279 1.22006C18.003 1.59514 18.2137 2.10384 18.2137 2.63428V16.6343C18.2137 17.1647 18.003 17.6734 17.6279 18.0485C17.2528 18.4236 16.7441 18.6343 16.2137 18.6343H2.21368C1.68325 18.6343 1.17454 18.4236 0.79947 18.0485C0.424398 17.6734 0.213684 17.1647 0.213684 16.6343V2.63428C0.213684 2.10384 0.424398 1.59514 0.79947 1.22006C1.17454 0.844991 1.68325 0.634277 2.21368 0.634277H16.2137ZM15.7137 16.1343V10.8343C15.7137 9.96967 15.3702 9.14048 14.7589 8.52911C14.1475 7.91774 13.3183 7.57428 12.4537 7.57428C11.6037 7.57428 10.6137 8.09428 10.1337 8.87428V7.76428H7.34368V16.1343H10.1337V11.2043C10.1337 10.4343 10.7537 9.80428 11.5237 9.80428C11.895 9.80428 12.2511 9.95178 12.5136 10.2143C12.7762 10.4769 12.9237 10.833 12.9237 11.2043V16.1343H15.7137ZM4.09368 6.19428C4.53925 6.19428 4.96656 6.01728 5.28162 5.70222C5.59668 5.38716 5.77368 4.95984 5.77368 4.51428C5.77368 3.58428 5.02368 2.82428 4.09368 2.82428C3.64547 2.82428 3.21561 3.00233 2.89867 3.31927C2.58174 3.6362 2.40368 4.06606 2.40368 4.51428C2.40368 5.44428 3.16368 6.19428 4.09368 6.19428ZM5.48368 16.1343V7.76428H2.71368V16.1343H5.48368Z" fill="#CC8E1E"/>
</svg>
