<svg width="28" height="10" viewBox="0 0 28 10" fill="none" xmlns="http://www.w3.org/2000/svg">
<path d="M20.0558 1.21874C19.436 0.99284 18.7808 0.87954 18.1211 0.88404C15.9878 0.88404 14.4811 1.95874 14.4705 3.50134C14.4571 4.63474 15.5411 5.27334 16.3611 5.65204C17.2025 6.04134 17.4838 6.28674 17.4811 6.63474C17.4758 7.16404 16.8091 7.40404 16.1891 7.40404C15.3371 7.40404 14.8718 7.28534 14.1558 6.98804L13.8905 6.86404L13.5878 8.64004C14.1065 8.85604 15.0411 9.04134 16.0065 9.05734C18.2745 9.05734 19.7571 7.98934 19.7745 6.34804C19.7931 5.44274 19.2065 4.75874 17.9718 4.19334C17.2211 3.82674 16.7558 3.58134 16.7558 3.20934C16.7558 2.88004 17.1545 2.52804 17.9878 2.52804C18.5424 2.51464 19.0936 2.61874 19.6051 2.83334L19.8051 2.92274L20.1078 1.20674L20.0558 1.21874ZM25.5918 1.02804H23.9251C23.4065 1.02804 23.0158 1.17074 22.7891 1.68534L19.5838 8.94674H21.8518L22.3051 7.75604L25.0731 7.75874C25.1385 8.03734 25.3385 8.94674 25.3385 8.94674H27.3385L25.5918 1.02804ZM11.4025 0.96134H13.5638L12.2118 8.88404H10.0531L11.4025 0.958739V0.96134ZM5.91585 5.32804L6.13985 6.42804L8.25185 1.02804H10.5411L7.13985 8.93604H4.85585L2.98918 2.24004C2.95895 2.12964 2.88795 2.03484 2.79052 1.97474C2.11772 1.62714 1.40485 1.36344 0.667847 1.18934L0.697177 1.02274H4.17585C4.64785 1.04134 5.02785 1.18934 5.15452 1.69334L5.91452 5.33204V5.32804H5.91585ZM22.9251 6.13604L23.7865 3.92004C23.7758 3.94404 23.9638 3.46274 24.0731 3.16534L24.2211 3.84934L24.7211 6.13474H22.9238V6.13604H22.9251Z" fill="#8099F7"/>
</svg>
