<svg width="21" height="15" viewBox="0 0 21 15" fill="none" xmlns="http://www.w3.org/2000/svg">
<path d="M8.21368 10.6343L13.4037 7.63428L8.21368 4.63428V10.6343ZM19.7737 2.80428C19.9037 3.27428 19.9937 3.90428 20.0537 4.70428C20.1237 5.50428 20.1537 6.19428 20.1537 6.79428L20.2137 7.63428C20.2137 9.82428 20.0537 11.4343 19.7737 12.4643C19.5237 13.3643 18.9437 13.9443 18.0437 14.1943C17.5737 14.3243 16.7137 14.4143 15.3937 14.4743C14.0937 14.5443 12.9037 14.5743 11.8037 14.5743L10.2137 14.6343C6.02368 14.6343 3.41368 14.4743 2.38368 14.1943C1.48368 13.9443 0.903684 13.3643 0.653684 12.4643C0.523684 11.9943 0.433684 11.3643 0.373684 10.5643C0.303684 9.76428 0.273684 9.07428 0.273684 8.47428L0.213684 7.63428C0.213684 5.44428 0.373684 3.83428 0.653684 2.80428C0.903684 1.90428 1.48368 1.32428 2.38368 1.07428C2.85368 0.944277 3.71368 0.854277 5.03368 0.794277C6.33368 0.724277 7.52368 0.694277 8.62368 0.694277L10.2137 0.634277C14.4037 0.634277 17.0137 0.794277 18.0437 1.07428C18.9437 1.32428 19.5237 1.90428 19.7737 2.80428Z" fill="#CC8E1E"/>
</svg>
